<?xml version="1.0" encoding="utf-8"?>
<!-- Generator: Adobe Illustrator 15.1.0, SVG Export Plug-In . SVG Version: 6.00 Build 0)  -->
<!DOCTYPE svg PUBLIC "-//W3C//DTD SVG 1.1//EN" "http://www.w3.org/Graphics/SVG/1.1/DTD/svg11.dtd">
<svg version="1.1" id="Layer_1" xmlns="http://www.w3.org/2000/svg" xmlns:xlink="http://www.w3.org/1999/xlink" x="0px" y="0px"
	 width="18.939px" height="16.969px" viewBox="0 0 18.939 16.969" enable-background="new 0 0 18.939 16.969" xml:space="preserve">
<path fill="#FFFFFF" d="M5.531,16.978c-1.146,0-2.074-0.928-2.074-2.073s0.929-2.073,2.074-2.073l0,0
	c0.547-0.003,1.072,0.213,1.46,0.6c0.394,0.386,0.613,0.915,0.609,1.466c0.006,1.144-0.917,2.076-2.061,2.081
	C5.536,16.978,5.533,16.978,5.531,16.978z M5.531,14.015L5.531,14.015c-0.491-0.001-0.89,0.397-0.891,0.888
	c0,0.491,0.397,0.89,0.888,0.891c0.118,0,0.234-0.023,0.343-0.068c0.331-0.14,0.548-0.464,0.55-0.824
	c-0.003-0.234-0.096-0.46-0.26-0.629C5.991,14.107,5.766,14.015,5.531,14.015z M13.92,16.978c-0.549,0.002-1.074-0.217-1.46-0.606
	c-0.813-0.803-0.821-2.112-0.02-2.925c0.391-0.396,0.924-0.617,1.479-0.615l0,0c0.553-0.018,1.087,0.2,1.47,0.6
	c0.809,0.82,0.799,2.141-0.021,2.948c-0.188,0.185-0.407,0.332-0.649,0.435C14.467,16.92,14.195,16.977,13.92,16.978z M13.92,14.015
	L13.92,14.015c-0.353,0.021-0.666,0.23-0.82,0.548c-0.188,0.452,0.024,0.972,0.476,1.161c0.22,0.092,0.466,0.092,0.685,0
	c0.455-0.188,0.671-0.71,0.482-1.164c-0.045-0.107-0.11-0.205-0.192-0.288C14.382,14.107,14.156,14.015,13.92,14.015z M2.65,14.179
	C2.564,14.18,2.478,14.16,2.4,14.123c-0.296-0.136-0.427-0.485-0.292-0.781c0.001-0.002,0.002-0.004,0.002-0.006
	c0.552-1.217,1.719-2.04,3.051-2.151L4.11,5.794C4.047,5.474,4.256,5.163,4.576,5.1c0.32-0.063,0.631,0.146,0.693,0.466l1.09,5.578
	h9.431l1.8-6.771H4.29C2.149,4.365,0.332,2.797,0.01,0.68c-0.051-0.32,0.167-0.621,0.486-0.673c0.002,0,0.003,0,0.004,0
	c0.325-0.048,0.629,0.175,0.68,0.5c0.235,1.538,1.555,2.676,3.11,2.682H18.36c0.185-0.001,0.359,0.085,0.471,0.232
	c0.114,0.145,0.154,0.334,0.109,0.513l-2.13,7.956c-0.068,0.259-0.302,0.439-0.569,0.44H5.88c-0.007-0.003-0.014-0.003-0.021,0
	c-1.123-0.117-2.197,0.488-2.68,1.51C3.084,14.046,2.877,14.178,2.65,14.179L2.65,14.179z"/>
</svg>
