<?xml version="1.0" encoding="utf-8"?>
<!-- Generator: Adobe Illustrator 15.1.0, SVG Export Plug-In . SVG Version: 6.00 Build 0)  -->
<!DOCTYPE svg PUBLIC "-//W3C//DTD SVG 1.1//EN" "http://www.w3.org/Graphics/SVG/1.1/DTD/svg11.dtd">
<svg version="1.1" id="Layer_1" xmlns="http://www.w3.org/2000/svg" xmlns:xlink="http://www.w3.org/1999/xlink" x="0px" y="0px"
	 width="17.871px" height="15.531px" viewBox="0 0 17.871 15.531" enable-background="new 0 0 17.871 15.531" xml:space="preserve">
<path fill="#FFFFFF" d="M13.023,0.029C10.859,0.31,9.939,1.171,8.936,2.291c-1.004-1.12-1.924-1.98-4.089-2.262
	c-2.606,0.003-4.738,2.079-4.81,4.685c0,7.034,8.291,10.635,8.65,10.783c0.068,0.028,0.143,0.037,0.216,0.043v0.014
	c0.011,0,0.021-0.007,0.032-0.008c0.011,0.001,0.021,0.008,0.032,0.008V15.54c0.074-0.006,0.148-0.015,0.216-0.043
	c0.359-0.148,8.65-3.749,8.65-10.783C17.762,2.108,15.63,0.032,13.023,0.029z M8.936,14.079c-1.45-0.7-7.489-3.948-7.489-9.343
	c0.051-1.88,1.617-3.363,3.498-3.313C6.762,1.473,8.22,2.942,8.257,4.76c0.02,0.354,0.3,0.625,0.646,0.656v0.013
	c0.011,0,0.021-0.007,0.032-0.007c0.011,0,0.021,0.007,0.032,0.007V5.417C9.313,5.385,9.593,5.114,9.613,4.76
	c0.037-1.818,1.496-3.287,3.313-3.337c1.881-0.052,3.447,1.433,3.498,3.313C16.423,10.131,10.384,13.379,8.936,14.079z"/>
</svg>
