<?xml version="1.0" encoding="utf-8"?>
<!-- Generator: Adobe Illustrator 15.1.0, SVG Export Plug-In . SVG Version: 6.00 Build 0)  -->
<!DOCTYPE svg PUBLIC "-//W3C//DTD SVG 1.1//EN" "http://www.w3.org/Graphics/SVG/1.1/DTD/svg11.dtd">
<svg version="1.1" id="Layer_1" xmlns="http://www.w3.org/2000/svg" xmlns:xlink="http://www.w3.org/1999/xlink" x="0px" y="0px"
	 width="15.279px" height="15.281px" viewBox="0 0 15.279 15.281" enable-background="new 0 0 15.279 15.281" xml:space="preserve">
<path id="icon" fill="#FFFFFF" d="M2.98,6.076c0.332-0.079,0.665,0.125,0.744,0.456c0.002,0.01,0.004,0.02,0.006,0.029
	C3.817,7.131,4.091,7.655,4.51,8.05C4.924,8.444,5.44,8.714,6,8.827C6.338,8.9,6.556,9.23,6.49,9.57
	c-0.068,0.334-0.383,0.559-0.721,0.515c-0.809-0.159-1.553-0.552-2.14-1.13C3.051,8.371,2.657,7.627,2.5,6.819
	c-0.084-0.32,0.108-0.648,0.429-0.732C2.946,6.083,2.963,6.079,2.98,6.076z M6.26,0c3.461-0.007,6.272,2.793,6.28,6.254
	c0,0.001,0,0.002,0,0.003c0.002,0.898-0.192,1.786-0.57,2.601l2.34,2.036c1.7,1.746,0.74,3.266,0.29,3.717
	c-0.42,0.454-1.989,1.414-3.729-0.292l-2.061-2.35c-3.151,1.422-6.859,0.02-8.281-3.133c-1.422-3.151-0.02-6.859,3.132-8.282
	C4.478,0.185,5.364-0.003,6.26,0z M11.81,13.517c0.461,0.574,1.297,0.675,1.88,0.226c0.456-0.563,0.369-1.391-0.194-1.847
	c-0.012-0.009-0.023-0.019-0.035-0.027l-2.16-1.88c-0.385,0.515-0.847,0.967-1.37,1.34L11.81,13.517z M6.26,11.205
	c2.732-0.012,4.938-2.237,4.926-4.97c-0.012-2.732-2.237-4.938-4.97-4.926C3.492,1.321,1.29,3.533,1.29,6.257
	c0.011,2.736,2.233,4.947,4.97,4.943V11.205z"/>
</svg>
